<svg xmlns="http://www.w3.org/2000/svg"><path d="M38 126.40Q18.80 126.40 9.40 114Q0 101.60 0 81.20L0 81.20Q0 78.20 0.40 72.20L0.40 72.20Q1.80 57.40 7.50 44.10Q13.20 30.80 21.40 21.80L21.40 21.80Q26.60 16 30.80 16L30.80 16Q32.40 16 33.80 17L33.80 17Q45.60 2.60 63.20 2.60L63.20 2.60Q83 2.60 92.90 14.30Q102.80 26 102.80 47L102.80 47Q102.80 49.80 102.40 56.20L102.40 56.20Q100.80 73 92.20 89.30Q83.60 105.60 69.50 116Q55.40 126.40 38 126.40L38 126.40ZM38.40 102.60Q48.80 102.60 57.90 95.20Q67 87.80 72.80 76.40Q78.60 65 79.60 54L79.60 54Q79.80 52.40 79.80 49.20L79.80 49.20Q79.80 39 75.70 32.30Q71.60 25.60 61.60 25.60L61.60 25.60Q55.20 25.60 51.70 27.50Q48.20 29.40 46 33.20Q43.80 37 40 45.60L40 45.60L38.40 49.40Q36.40 54.60 31.80 54.60L31.80 54.60Q30.40 54.60 29.60 54.40L29.60 54.40Q27.60 55.40 25.40 62.80Q23.20 70.20 22.40 79L22.40 79Q21.80 87.80 26.40 95.20Q31.00 102.60 38.40 102.60L38.40 102.60ZM99.20 138.80Q94.20 137.60 94.20 127.80L94.20 127.80Q94.20 123.20 95.80 115.20L95.80 115.20Q97.40 108.20 106.20 83.90Q115 59.60 124.30 36.70Q133.60 13.80 136.60 9.40L136.60 9.40Q143.40 0 151.40 0L151.40 0Q153.20 0 155.40 0.60L155.40 0.60Q157.60 1.40 159.00 4Q160.40 6.60 160.40 10.40L160.40 10.40Q160.40 15 158.20 19.40L158.20 19.40Q152.20 32 134.90 73.80Q117.60 115.60 115.60 125.20L115.60 125.20Q112.40 139.20 102.80 139.20L102.80 139.20Q101.20 139.20 99.20 138.80L99.20 138.80ZM172 128.20Q166.20 127.60 158.40 123.30Q150.60 119 145.00 110.90Q139.40 102.80 140.20 91.60L140.20 91.60Q141.40 75.80 152.80 63.60Q164.20 51.40 177.10 44.40Q190.00 37.40 196.40 35.60L196.40 35.60Q200.40 34.40 204.60 34.40L204.60 34.40Q211.40 34.40 214.20 38.80L214.20 38.80Q216.00 41.40 216.00 44.40L216.00 44.40Q216.00 48.20 213.10 51.70Q210.20 55.20 204.60 57.20L204.60 57.20Q189.80 62.40 176.60 71.20Q163.40 80 163.40 92.40L163.40 92.40Q163.40 100.40 168.20 104.40Q173 108.40 181.40 112L181.40 112Q185.20 113.40 187.00 114.50Q188.80 115.60 188.80 117.20L188.80 117.20Q188.80 122.20 183.90 125.60Q179 129 172 128.20L172 128.20Z"/></svg>