<svg xmlns="http://www.w3.org/2000/svg" viewBox="26 -622 1080 696"><path d="M216 10Q120 10 73-52Q26-114 26-216L26-216Q26-231 28-261L28-261Q35-335 63.50-401.50Q92-468 133-513L133-513Q159-542 180-542L180-542Q188-542 195-537L195-537Q254-609 342-609L342-609Q441-609 490.50-550.50Q540-492 540-387L540-387Q540-373 538-341L538-341Q530-257 487-175.50Q444-94 373.50-42Q303 10 216 10L216 10ZM218-109Q270-109 315.50-146Q361-183 390-240Q419-297 424-352L424-352Q425-360 425-376L425-376Q425-427 404.50-460.50Q384-494 334-494L334-494Q302-494 284.50-484.50Q267-475 256-456Q245-437 226-394L226-394L218-375Q208-349 185-349L185-349Q178-349 174-350L174-350Q164-345 153-308Q142-271 138-227L138-227Q135-183 158-146Q181-109 218-109L218-109ZM522 72Q497 66 497 17L497 17Q497-6 505-46L505-46Q513-81 557-202.50Q601-324 647.50-438.50Q694-553 709-575L709-575Q743-622 783-622L783-622Q792-622 803-619L803-619Q814-615 821-602Q828-589 828-570L828-570Q828-547 817-525L817-525Q787-462 700.50-253Q614-44 604 4L604 4Q588 74 540 74L540 74Q532 74 522 72L522 72ZM886 19Q857 16 818-5.50Q779-27 751-67.50Q723-108 727-164L727-164Q733-243 790-304Q847-365 911.50-400Q976-435 1008-444L1008-444Q1028-450 1049-450L1049-450Q1083-450 1097-428L1097-428Q1106-415 1106-400L1106-400Q1106-381 1091.50-363.50Q1077-346 1049-336L1049-336Q975-310 909-266Q843-222 843-160L843-160Q843-120 867-100Q891-80 933-62L933-62Q952-55 961-49.50Q970-44 970-36L970-36Q970-11 945.50 6Q921 23 886 19L886 19Z"/></svg>